<svg xmlns="http://www.w3.org/2000/svg" xmlns:xlink="http://www.w3.org/1999/xlink" width="35.778" height="39.586" viewBox="0 0 35.778 39.586">
  <defs>
    <clipPath id="clip-path">
      <rect width="35.778" height="39.586" fill="none"/>
    </clipPath>
    <clipPath id="clip-path-2">
      <path id="Path_3" data-name="Path 3" d="M28.289-72.532C23.189-83.5,20.539-87.672,12.207-87.5c-2.967.061-2.254-2.149-4.517-1.31s-.321,2.066-2.634,3.964c-6.491,5.327-5.892,10.256-2.882,22C3.443-57.9-.883-57.653.829-52.857,2.078-49.36,11.291-47.9,21.01-51.5S36.866-62.267,35.617-65.764C33.9-70.561,30.437-67.913,28.289-72.532ZM19.956-54.457c-8.681,3.221-15.815,1.326-16.117.484-.52-1.453,2.8-6.3,12.727-9.98s15.463-2.317,16.042-.695C32.95-63.69,28.637-57.678,19.956-54.457Zm-2.79-7.815a32.522,32.522,0,0,0-9.733,5.345c1.436,1.3,4.128,1.623,6.811.628,3.415-1.267,5.512-4.176,4.683-6.5-.009-.028-.025-.053-.035-.081Q18.052-62.6,17.166-62.272Z" transform="translate(0 89)" fill="none"/>
    </clipPath>
    <clipPath id="clip-path-3">
      <path id="Path_2" data-name="Path 2" d="M-140.258,1000.2h161V-159h-161Z" transform="translate(140.258 159)" fill="none"/>
    </clipPath>
  </defs>
  <g id="Notification_Icon" data-name="Notification Icon" clip-path="url(#clip-path)">
    <g id="Notification_Icon-2" data-name="Notification Icon" clip-path="url(#clip-path-2)">
      <g id="Group_1" data-name="Group 1" transform="translate(-62.726 -31.305)" clip-path="url(#clip-path-3)">
        <path id="Path_1" data-name="Path 1" d="M-5-49.942H35.25V-94H-5Z" transform="translate(65.49 123.069)" fill="#999"/>
      </g>
    </g>
  </g>
</svg>
